<?xml version="1.0" encoding="utf-8"?>
<!-- Generator: Adobe Illustrator 22.0.1, SVG Export Plug-In . SVG Version: 6.00 Build 0)  -->
<svg version="1.1" id="Layer_1" xmlns="http://www.w3.org/2000/svg" xmlns:xlink="http://www.w3.org/1999/xlink" x="0px" y="0px"
	 viewBox="0 0 386 230.8" style="enable-background:new 0 0 386 230.8;" xml:space="preserve">
<style type="text/css">
	.st0{display:none;fill:#606060;}
	.st1{fill:#52B1B4;}
	.st2{fill:#7A7A7A;}
	.st3{enable-background:new    ;}
</style>
<g>
	<path class="st0" d="M24.7,64.4H14.1l0,0c0-27.9,22.6-50.5,50.5-50.5l0,0v10.6C64.6,46.6,46.7,64.4,24.7,64.4z"/>
	<path class="st1" d="M107.2,104.9c11.1-4,19.5-12.4,19.5-26.3c0-16.2-12.9-29.6-37.2-29.6l0,0c-5.4,0-9.9,4.4-9.9,9.9v5.5h8.2
		c12.2,0,19.7,6.1,19.7,16.5c0,10.6-7.4,16.4-19.7,16.4H64.6V79.5l0,0c-10.4,0-18.8,8.4-18.8,18.8v65.6h45.9
		c23.5,0,37.7-13.4,37.7-30.9C129.3,119.3,119.4,107,107.2,104.9z M90,148.5H64.6v-35.8h24.8c12.6,0,21.1,6.9,21.1,18.3
		C110.5,142.1,102.7,148.5,90,148.5z"/>
</g>
<g>
	<path class="st1" d="M162.8,52.1v94h36.8v17.8h-59.2V74.5C140.4,62.2,150.4,52.1,162.8,52.1L162.8,52.1z"/>
	<path class="st1" d="M236.2,52.1L236.2,52.1v111.7h-22.4V74.5C213.8,62.2,223.9,52.1,236.2,52.1z"/>
	<path class="st1" d="M283.8,52.1L283.8,52.1l35.5,83.1l35.5-83.1h25.3v111.7h-22.4V91.2l-29.9,72.7h-17l-30.1-72.7v72.7h-22.4V77.6
		C258.3,63.5,269.7,52.1,283.8,52.1z"/>
</g>
<path class="st2" d="M60.6,57.7l0.8-36.1c0-0.7-0.8-1.1-1.3-0.6L47.4,33.2L31.3,9.8c-1.7-1.7-4.4-1.8-6.2-0.1L9.7,24.5
	c-1.7,1.7-1.8,4.4-0.1,6.2l23.7,15.8L19.5,59.8c-0.5,0.5-0.2,1.3,0.5,1.3l36.1,0.8C58.6,62,60.6,60.1,60.6,57.7z"/>
<g class="st3">
	<path class="st2" d="M11.6,176.1h6.6V211h-6.6V176.1z"/>
	<path class="st2" d="M28.8,177.9c0-2.2,1.7-3.9,4.1-3.9c2.3,0,4.1,1.7,4.1,3.9c0,2.2-1.7,3.9-4.1,3.9
		C30.5,181.8,28.8,180.1,28.8,177.9z M29.5,184.9h6.6V211h-6.6V184.9z"/>
	<path class="st2" d="M65.6,196.6c0-4.2-2.3-6.5-5.8-6.5c-3.6,0-5.9,2.3-5.9,6.5V211h-6.6v-26.1h6.6v3.3c1.7-2.2,4.5-3.6,7.9-3.6
		c6.1,0,10.4,4,10.4,11.2V211h-6.6V196.6z"/>
	<path class="st2" d="M83.2,176.1h6.6V196l8.8-11.1h8.6L95.7,198l11.6,13h-8.6l-8.9-11.1V211h-6.6V176.1z"/>
	<path class="st2" d="M168,196.6c0-4.2-2.3-6.3-5.8-6.3c-3.5,0-5.9,2.2-5.9,6.3V211h-6.6v-14.4c0-4.2-2.3-6.3-5.8-6.3
		c-3.6,0-5.9,2.2-5.9,6.3V211h-6.6v-26.1h6.6v3.2c1.7-2.2,4.4-3.5,7.7-3.5c4.1,0,7.4,1.7,9.2,5c1.7-3,5.1-5,9-5
		c6.3,0,10.7,4,10.7,11.2V211H168V196.6z"/>
	<path class="st2" d="M195.8,184.5c4.2,0,7.1,2,8.6,4.2v-3.7h6.7V211h-6.7v-3.8c-1.6,2.3-4.5,4.2-8.7,4.2c-6.6,0-11.9-5.4-11.9-13.6
		S189.2,184.5,195.8,184.5z M197.5,190.3c-3.5,0-6.9,2.6-6.9,7.6s3.4,7.8,6.9,7.8c3.6,0,6.9-2.7,6.9-7.7
		C204.5,193,201.2,190.3,197.5,190.3z"/>
	<path class="st2" d="M240.6,196.6c0-4.2-2.3-6.5-5.8-6.5c-3.6,0-5.9,2.3-5.9,6.5V211h-6.6v-26.1h6.6v3.3c1.7-2.2,4.5-3.6,7.9-3.6
		c6.1,0,10.4,4,10.4,11.2V211h-6.6V196.6z"/>
	<path class="st2" d="M268.5,184.5c4.2,0,7.1,2,8.6,4.2v-3.7h6.7V211h-6.7v-3.8c-1.6,2.3-4.5,4.2-8.7,4.2c-6.6,0-11.9-5.4-11.9-13.6
		S261.8,184.5,268.5,184.5z M270.2,190.3c-3.5,0-6.9,2.6-6.9,7.6s3.3,7.8,6.9,7.8c3.6,0,6.9-2.7,6.9-7.7
		C277.1,193,273.8,190.3,270.2,190.3z"/>
	<path class="st2" d="M305.2,184.5c4.1,0,7.1,1.9,8.6,4.2v-3.7h6.7v26.3c0,7.1-4.3,12.7-12.9,12.7c-7.4,0-12.5-3.7-13.2-9.7h6.6
		c0.7,2.4,3.1,3.9,6.4,3.9c3.6,0,6.5-2.1,6.5-6.9v-4.1c-1.6,2.3-4.5,4.3-8.6,4.3c-6.7,0-11.9-5.4-11.9-13.6S298.5,184.5,305.2,184.5
		z M306.9,190.3c-3.5,0-6.9,2.6-6.9,7.6s3.3,7.8,6.9,7.8c3.6,0,6.9-2.7,6.9-7.7C313.8,193,310.5,190.3,306.9,190.3z"/>
	<path class="st2" d="M343.1,211.4c-7.6,0-13.1-5.3-13.1-13.5c0-8.3,5.4-13.5,13.1-13.5c7.5,0,12.9,5.1,12.9,12.9
		c0,0.8,0,1.7-0.2,2.5h-19.1c0.3,3.9,3,6,6.3,6c2.8,0,4.4-1.4,5.2-3.2h7.1C353.9,207.6,349.5,211.4,343.1,211.4z M336.7,195.5h12.4
		c-0.1-3.4-2.8-5.6-6.2-5.6C339.7,189.9,337.2,191.9,336.7,195.5z"/>
	<path class="st2" d="M372.1,211h-6.6v-26.1h6.6v4.1c1.7-2.7,4.4-4.4,8-4.4v6.9h-1.7c-3.9,0-6.3,1.5-6.3,6.6V211z"/>
</g>
</svg>
