<?xml version="1.0" encoding="utf-8"?>
<!-- Generator: Adobe Illustrator 22.0.1, SVG Export Plug-In . SVG Version: 6.00 Build 0)  -->
<svg version="1.1" id="Layer_1" xmlns="http://www.w3.org/2000/svg" xmlns:xlink="http://www.w3.org/1999/xlink" x="0px" y="0px"
	 viewBox="0 0 387.5 172.8" style="enable-background:new 0 0 387.5 172.8;" xml:space="preserve">
<style type="text/css">
	.st0{display:none;fill:#606060;}
	.st1{fill:#52B1B4;}
	.st2{fill:#7A7A7A;}
</style>
<g>
	<path class="st0" d="M24.7,64.4H14.1l0,0c0-27.9,22.6-50.5,50.5-50.5l0,0v10.6C64.6,46.6,46.7,64.4,24.7,64.4z"/>
	<path class="st1" d="M107.2,104.9c11.1-4,19.5-12.4,19.5-26.3c0-16.2-12.9-29.6-37.2-29.6l0,0c-5.4,0-9.9,4.4-9.9,9.9v5.5h8.2
		c12.2,0,19.7,6.1,19.7,16.5c0,10.6-7.4,16.4-19.7,16.4H64.6V79.5l0,0c-10.4,0-18.8,8.4-18.8,18.8v65.6h45.9
		c23.5,0,37.7-13.4,37.7-30.9C129.3,119.3,119.4,107,107.2,104.9z M90,148.5H64.6v-35.8h24.8c12.6,0,21.1,6.9,21.1,18.3
		C110.5,142.1,102.7,148.5,90,148.5z"/>
</g>
<g>
	<path class="st1" d="M162.8,52.1v94h36.8v17.8h-59.2V74.5C140.4,62.2,150.4,52.1,162.8,52.1L162.8,52.1z"/>
	<path class="st1" d="M236.2,52.1L236.2,52.1v111.7h-22.4V74.5C213.8,62.2,223.9,52.1,236.2,52.1z"/>
	<path class="st1" d="M283.8,52.1L283.8,52.1l35.5,83.1l35.5-83.1h25.3v111.7h-22.4V91.2l-29.9,72.7h-17l-30.1-72.7v72.7h-22.4V77.6
		C258.3,63.5,269.7,52.1,283.8,52.1z"/>
</g>
<path class="st2" d="M54.3,59.2l0.4-19.7c0.1-2.8-3.3-4.3-5.3-2.3l0,0c-1.2,1.2-3.2,1.2-4.4-0.1L33.3,24.9c-1.2-1.2-3.2-1.3-4.4-0.1
	L17.8,35.4c-1.2,1.2-1.3,3.2-0.1,4.4l11.7,12.2c1.2,1.2,1.2,3.2-0.1,4.4l0,0c-2,1.9-0.7,5.3,2.1,5.4l19.7,0.4
	C52.9,62.3,54.3,61,54.3,59.2z"/>
</svg>
